<?xml version="1.0" encoding="UTF-8" standalone="no"?>
<svg
   xmlns:dc="http://purl.org/dc/elements/1.1/"
   xmlns:cc="http://creativecommons.org/ns#"
   xmlns:rdf="http://www.w3.org/1999/02/22-rdf-syntax-ns#"
   xmlns:svg="http://www.w3.org/2000/svg"
   xmlns="http://www.w3.org/2000/svg"
   viewBox="0 0 557.86139 234.04773"
   height="234.04773"
   width="557.86139"
   xml:space="preserve"
   id="svg2"
   version="1.1"><metadata
     id="metadata8"><rdf:RDF><cc:Work
         rdf:about=""><dc:format>image/svg+xml</dc:format><dc:type
           rdf:resource="http://purl.org/dc/dcmitype/StillImage" /><dc:title></dc:title></cc:Work></rdf:RDF></metadata><defs
     id="defs6"><clipPath
       id="clipPath20"
       clipPathUnits="userSpaceOnUse"><path
         id="path18"
         d="M 0,1080 H 1920 V 0 H 0 Z" /></clipPath></defs><g
     transform="matrix(1.3333333,0,0,-1.3333333,-917.69444,809.26287)"
     id="g10"><path
       id="path134"
       style="fill:#e2ac34;fill-opacity:1;fill-rule:nonzero;stroke:none"
       d="m 819.43385,512.95937 h -49.718 v 49.756 h 49.718 z m 0,-41.417 c 0,-7.141 -5.811,-12.952 -12.953,-12.952 h -23.611 c -4.453,0 -8.797,-1.254 -12.565,-3.626 l -0.589,-0.371 v 53.753 h 49.718 z m -54.332,41.417 h -49.718 v 49.756 h 49.718 z m 0,-58.366 -0.589,0.371 c -3.768,2.372 -8.112,3.626 -12.563,3.626 h -23.613 c -7.142,0 -12.953,5.811 -12.953,12.952 v 36.804 h 49.718 z m -54.331,112.734 v -95.785 c 0,-9.686 7.88,-17.565 17.566,-17.565 h 23.613 c 5.09,0 9.876,-1.984 13.474,-5.581 l 1.984,-1.985 1.986,1.985 c 3.599,3.597 8.385,5.581 13.476,5.581 h 23.611 c 9.687,0 17.568,7.879 17.568,17.565 v 95.785 z" /><path
       id="path136"
       style="fill:#e2ac34;fill-opacity:1;fill-rule:nonzero;stroke:none"
       d="m 736.91685,501.24937 h -4.613 v -36.199 h 4.613 z" /><path
       id="path138"
       style="fill:#e2ac34;fill-opacity:1;fill-rule:nonzero;stroke:none"
       d="m 747.68285,501.24937 h -4.613 v -36.199 h 4.613 z" /><path
       id="path140"
       style="fill:#e2ac34;fill-opacity:1;fill-rule:nonzero;stroke:none"
       d="m 758.44985,501.24937 h -4.613 v -36.199 h 4.613 z" /><g
       transform="translate(726.15095,465.28197)"
       id="g142"><path
         id="path144"
         style="fill:#e2ac34;fill-opacity:1;fill-rule:nonzero;stroke:none"
         d="M 0,0 V 35.968 H -4.613 V 8.075 L -4.577,8.072 -4.613,7.515 V 6.528 C -4.547,5.167 -4.186,3.214 -2.844,1.747 -2.142,0.976 -1.186,0.391 0,0" /></g><path
       id="path146"
       style="fill:#e2ac34;fill-opacity:1;fill-rule:nonzero;stroke:none"
       d="m 783.04385,556.79537 h -6.33 v -37.892 h 6.33 z" /><path
       id="path148"
       style="fill:#e2ac34;fill-opacity:1;fill-rule:nonzero;stroke:none"
       d="m 797.70485,556.79537 h -6.331 v -37.892 h 6.331 z" /><path
       id="path150"
       style="fill:#e2ac34;fill-opacity:1;fill-rule:nonzero;stroke:none"
       d="m 812.13585,556.77137 h -6.331 v -37.867 h 6.331 z" /><g
       transform="translate(727.02015,550.08757)"
       id="g152"><path
         id="path154"
         style="fill:#e2ac34;fill-opacity:1;fill-rule:nonzero;stroke:none"
         d="m 0,0 0.176,0.113 c 3.092,1.995 7.43,1.929 10.552,-0.173 l 0.17,-0.114 V -23.86 l -0.522,0.199 c -3.146,1.19 -6.674,1.223 -9.86,0.067 L 0,-23.78 Z m 15.547,-0.139 0.169,0.115 c 3.076,2.107 7.42,2.164 10.555,0.137 L 26.447,0 v -23.78 l -0.516,0.186 c -3.143,1.141 -6.737,1.114 -9.862,-0.067 L 15.547,-23.86 Z M 5.35,-27.295 c 2.781,0 5.497,-0.778 7.873,-2.253 2.378,1.475 5.094,2.253 7.875,2.253 3.543,0 6.979,-1.261 9.676,-3.55 l 0.322,-0.272 V 2.646 l -0.821,0.695 c -2.558,2.171 -5.819,3.367 -9.177,3.367 -2.712,0 -5.363,-0.783 -7.667,-2.262 L 13.223,4.312 13.016,4.446 C 10.713,5.925 8.062,6.708 5.35,6.708 1.992,6.708 -1.269,5.512 -3.829,3.341 l -0.82,-0.695 v -33.763 l 0.321,0.272 c 2.699,2.289 6.136,3.55 9.678,3.55" /></g><g
       transform="translate(787.01525,483.39227)"
       id="g156"><path
         id="path158"
         style="fill:#e2ac34;fill-opacity:1;fill-rule:nonzero;stroke:none"
         d="M 0,0 5.237,7.351 V -3.925 H 9.886 V 7.296 l 5.159,-7.295 c 1.046,-1.523 1.6,-3.305 1.6,-5.152 0,-5.03 -4.092,-9.121 -9.122,-9.121 -5.029,0 -9.121,4.091 -9.121,9.121 0,1.847 0.553,3.629 1.598,5.151 m 7.523,-18.922 c 7.593,0 13.771,6.178 13.771,13.771 0,2.794 -0.836,5.485 -2.416,7.783 L 18.725,2.855 7.562,18.63 -3.839,2.626 c -1.574,-2.294 -2.408,-4.986 -2.408,-7.777 0,-7.593 6.178,-13.771 13.77,-13.771" /></g><g
       transform="translate(724.79555,576.10317)"
       id="g160"><path
         id="path162"
         style="fill:#e2ac34;fill-opacity:1;fill-rule:nonzero;stroke:none"
         d="m 0,0 0.761,-1.743 h 82.39 L 83.912,0 l 0.225,0.516 0.666,1.527 6.025,13.801 H 83.846 L 78.944,4.613 H 65.47 l 2.45,11.231 H 61.371 L 58.921,4.613 H 45.155 V 15.844 H 38.756 V 4.613 H 24.991 L 22.54,15.844 H 15.99 L 18.441,4.613 H 4.966 L 0.064,15.844 h -6.98 z" /></g><g
       transform="translate(859.35365,537.00457)"
       id="g164"><path
         id="path166"
         style="fill:#ffffff;fill-opacity:1;fill-rule:nonzero;stroke:none"
         d="M 0,0 V 10.971 H 3.319 V 0.247 c 0,-3.244 1.04,-4.581 3.665,-4.581 2.551,0 3.838,1.139 3.838,4.805 v 10.5 h 3.319 V 0.198 c 0,-4.632 -2.501,-7.182 -7.182,-7.182 C 2.526,-6.984 0,-4.557 0,0" /></g><g
       transform="translate(877.40395,547.97527)"
       id="g168"><path
         id="path170"
         style="fill:#ffffff;fill-opacity:1;fill-rule:nonzero;stroke:none"
         d="m 0,0 h 3.938 l 7.454,-12.804 V 0 h 2.996 V -17.707 H 10.971 L 2.997,-4.136 V -17.707 H 0 Z" /></g><path
       id="path172"
       style="fill:#ffffff;fill-opacity:1;fill-rule:nonzero;stroke:none"
       d="m 895.94885,547.97537 h 3.318 v -17.707 h -3.318 z" /><g
       transform="translate(901.98935,547.97527)"
       id="g174"><path
         id="path176"
         style="fill:#ffffff;fill-opacity:1;fill-rule:nonzero;stroke:none"
         d="M 0,0 H 3.442 L 8.049,-14.363 12.681,0 h 3.094 L 9.782,-17.707 H 5.97 Z" /></g><g
       transform="translate(920.36245,547.97527)"
       id="g178"><path
         id="path180"
         style="fill:#ffffff;fill-opacity:1;fill-rule:nonzero;stroke:none"
         d="M 0,0 H 11.069 V -2.601 H 3.294 V -7.454 H 9.533 V -9.931 H 3.294 v -5.175 h 8.196 v -2.601 H 0 Z" /></g><g
       transform="translate(940.76575,539.77797)"
       id="g182"><path
         id="path184"
         style="fill:#ffffff;fill-opacity:1;fill-rule:nonzero;stroke:none"
         d="M 0,0 C 2.204,0 3.368,0.94 3.368,2.823 V 2.922 C 3.368,4.953 2.104,5.646 0,5.646 H -2.65 V 0 Z M -5.944,8.197 H 0 c 3.888,0 6.612,-1.585 6.612,-5.201 V 2.897 c 0,-2.773 -1.733,-4.185 -3.937,-4.754 L 7.651,-9.51 H 4.086 l -4.631,7.157 H -2.65 V -9.51 h -3.294 z" /></g><g
       transform="translate(949.70225,535.76627)"
       id="g186"><path
         id="path188"
         style="fill:#ffffff;fill-opacity:1;fill-rule:nonzero;stroke:none"
         d="m 0,0 h 3.17 c 0.224,-1.783 0.941,-3.27 3.937,-3.27 1.957,0 3.344,1.09 3.344,2.725 0,1.635 -0.816,2.254 -3.689,2.724 -4.236,0.57 -6.241,1.857 -6.241,5.175 0,2.898 2.476,5.078 6.166,5.078 3.813,0 6.092,-1.734 6.438,-5.126 H 10.104 C 9.782,9.163 8.718,9.955 6.687,9.955 4.681,9.955 3.641,8.989 3.641,7.627 c 0,-1.437 0.594,-2.154 3.666,-2.601 4.159,-0.569 6.314,-1.757 6.314,-5.298 0,-3.072 -2.6,-5.474 -6.514,-5.474 C 2.278,-5.746 0.248,-3.344 0,0" /></g><path
       id="path190"
       style="fill:#ffffff;fill-opacity:1;fill-rule:nonzero;stroke:none"
       d="m 966.61385,547.97537 h 3.318 v -17.707 h -3.318 z" /><g
       transform="translate(977.65735,545.37467)"
       id="g192"><path
         id="path194"
         style="fill:#ffffff;fill-opacity:1;fill-rule:nonzero;stroke:none"
         d="M 0,0 H -4.929 V 2.601 H 8.247 V 0 H 3.318 V -15.106 H 0 Z" /></g><g
       transform="translate(990.70615,537.05337)"
       id="g196"><path
         id="path198"
         style="fill:#ffffff;fill-opacity:1;fill-rule:nonzero;stroke:none"
         d="m 0,0 h 5.225 l -2.6,8.223 z m 0.668,10.922 h 4.31 L 10.821,-6.785 H 7.404 L 5.992,-2.401 H -0.769 L -2.155,-6.785 H -5.25 Z" /></g><g
       transform="translate(1006.0324,545.37467)"
       id="g200"><path
         id="path202"
         style="fill:#ffffff;fill-opacity:1;fill-rule:nonzero;stroke:none"
         d="M 0,0 H -4.929 V 2.601 H 8.246 V 0 H 3.318 V -15.106 H 0 Z" /></g><g
       transform="translate(859.23345,501.73117)"
       id="g204"><path
         id="path206"
         style="fill:#ffffff;fill-opacity:1;fill-rule:nonzero;stroke:none"
         d="m 0,0 c 0,10.772 5.94,18.323 16.31,18.323 2.668,0 5.889,-0.352 9.111,-1.107 V 6.595 H 25.32 l -5.084,9.765 c -0.403,0.805 -0.705,0.856 -1.611,1.007 -0.705,0.101 -1.409,0.151 -2.064,0.151 -7.701,0 -10.52,-7.249 -10.52,-17.417 0,-11.075 3.322,-17.368 10.873,-17.368 0.554,0 1.208,0.051 1.762,0.101 0.855,0.101 1.157,0.303 1.51,0.906 l 5.134,10.118 h 0.101 V -17.216 C 22.35,-17.87 19.129,-18.071 16.964,-18.071 5.084,-18.071 0,-10.571 0,0" /></g><g
       transform="translate(894.01275,490.95867)"
       id="g208"><path
         id="path210"
         style="fill:#ffffff;fill-opacity:1;fill-rule:nonzero;stroke:none"
         d="m 0,0 c 0,-2.668 1.661,-4.38 3.826,-4.38 1.761,0 3.473,1.108 4.529,2.92 v 0.151 L 8.457,4.883 C 7.45,5.235 6.494,5.386 5.537,5.386 1.913,5.386 0,2.818 0,0 m 8.557,10.521 v 0.151 c 0,3.825 -1.711,6.594 -5.386,6.594 -1.258,0 -1.359,0 -1.661,-0.704 L -1.561,9.917 h -0.1 l -2.266,6.544 c 2.819,1.157 5.588,1.661 8.457,1.661 2.97,0 4.934,-0.453 6.393,-1.964 1.41,-1.459 2.265,-3.976 2.265,-8.255 V 7.198 l -0.201,-8.205 c -0.05,-2.165 0.452,-3.373 1.813,-3.373 0.906,0 1.409,0.554 1.661,1.46 h 0.1 c 0,-0.503 -0.1,-1.057 -0.302,-1.56 -0.553,-1.46 -1.913,-2.718 -3.876,-2.718 -2.215,0 -4.028,1.661 -4.028,5.336 -1.006,-3.373 -3.522,-5.336 -6.744,-5.336 -3.474,0 -6.544,2.365 -6.544,6.594 0,4.882 4.128,7.349 8.155,7.349 1.76,0 3.725,-0.453 5.235,-1.56 z" /></g><g
       transform="translate(920.73935,487.53587)"
       id="g212"><path
         id="path214"
         style="fill:#ffffff;fill-opacity:1;fill-rule:nonzero;stroke:none"
         d="M 0,0 C 0,-0.554 0,-0.806 0.653,-1.058 L 5.989,-3.272 V -3.373 H -8.76 v 0.101 l 3.423,2.013 c 0.555,0.302 0.555,0.554 0.555,1.108 v 17.517 c 0,0.655 -0.051,0.806 -0.555,1.158 l -3.423,2.517 v 0.101 H 0 V 13.44 c 0.653,3.423 3.271,8.105 7.902,8.105 1.007,0 1.813,-0.201 2.467,-0.605 L 7.853,13.49 H 7.752 L 5.234,19.078 C 5.135,19.279 4.883,19.279 4.631,19.128 2.265,17.771 1.106,15.252 0,12.937 Z" /></g><g
       transform="translate(939.96495,487.38447)"
       id="g216"><path
         id="path218"
         style="fill:#ffffff;fill-opacity:1;fill-rule:nonzero;stroke:none"
         d="M 0,0 C 0,-0.554 0,-0.705 0.604,-1.057 L 3.978,-3.121 V -3.222 H -8.759 v 0.101 l 3.423,2.014 c 0.555,0.301 0.555,0.553 0.555,1.107 v 28.895 c 0,0.654 -0.052,0.855 -0.555,1.157 l -3.423,2.013 v 0.101 L 0,33.173 Z" /></g><g
       transform="translate(950.48445,499.36497)"
       id="g220"><path
         id="path222"
         style="fill:#ffffff;fill-opacity:1;fill-rule:nonzero;stroke:none"
         d="m 0,0 h 10.37 v 0.101 c 0,5.587 -1.308,8.86 -4.631,8.86 C 2.366,8.961 0.403,5.437 0,0 m -0.05,-0.855 v -1.41 c 0,-6.796 3.171,-10.47 7.299,-10.47 3.473,0 6.191,1.711 8.004,6.191 l 0.101,-0.05 c -1.058,-6.041 -4.531,-9.01 -9.766,-9.01 -5.487,0 -10.471,3.775 -10.471,12.433 0,9.566 5.84,12.887 10.672,12.887 4.833,0 9.464,-2.869 9.464,-9.263 0,-0.453 -0.051,-0.906 -0.101,-1.308 z" /></g><g
       transform="translate(991.35655,487.38447)"
       id="g224"><path
         id="path226"
         style="fill:#ffffff;fill-opacity:1;fill-rule:nonzero;stroke:none"
         d="M 0,0 C 0,-0.604 0.05,-0.806 0.604,-1.107 L 4.026,-3.121 V -3.222 H -8.708 v 0.101 l 3.221,2.014 c 0.553,0.352 0.654,0.654 0.654,1.006 0,0.353 0.151,8.054 0.151,10.119 0,6.141 -1.359,8.758 -4.329,8.758 -2.315,0 -4.128,-1.509 -5.286,-3.724 V 0 c 0,-0.554 0,-0.705 0.605,-1.057 l 3.373,-2.064 v -0.101 h -12.737 v 0.101 l 3.423,2.014 c 0.555,0.301 0.555,0.553 0.555,1.107 v 17.518 c 0,0.654 -0.052,0.805 -0.555,1.158 l -3.423,2.516 v 0.101 h 8.759 v -5.939 c 1.208,4.378 3.826,6.342 7.45,6.342 3.474,0 5.789,-1.964 6.594,-6.242 1.158,4.026 4.027,6.242 7.854,6.242 4.279,0 6.845,-3.121 6.845,-10.068 0,-2.97 -0.05,-7.601 -0.099,-11.628 0,-0.604 0.049,-0.806 0.603,-1.107 l 3.423,-2.014 V -3.222 H 5.638 v 0.101 l 3.221,2.014 c 0.553,0.352 0.655,0.654 0.655,1.006 0,0.403 0.15,8.004 0.15,10.018 0,6.091 -1.258,8.859 -4.379,8.859 -2.265,0 -4.078,-1.258 -5.486,-3.574 C 0,14.146 0.101,12.938 0.101,11.628 0.101,9.162 0.05,4.027 0,0" /></g><g
       transform="translate(1016.4689,490.95867)"
       id="g228"><path
         id="path230"
         style="fill:#ffffff;fill-opacity:1;fill-rule:nonzero;stroke:none"
         d="m 0,0 c 0,-2.668 1.661,-4.38 3.826,-4.38 1.761,0 3.473,1.108 4.53,2.92 v 0.151 L 8.457,4.883 C 7.45,5.235 6.494,5.386 5.537,5.386 1.913,5.386 0,2.818 0,0 m 8.558,10.521 v 0.151 c 0,3.825 -1.711,6.594 -5.387,6.594 -1.258,0 -1.359,0 -1.661,-0.704 L -1.561,9.917 h -0.1 l -2.266,6.544 c 2.82,1.157 5.588,1.661 8.457,1.661 2.97,0 4.934,-0.453 6.393,-1.964 1.41,-1.459 2.266,-3.976 2.266,-8.255 V 7.198 L 12.987,-1.007 C 12.938,-3.172 13.44,-4.38 14.8,-4.38 c 0.906,0 1.409,0.554 1.661,1.46 h 0.101 c 0,-0.503 -0.101,-1.057 -0.303,-1.56 -0.553,-1.46 -1.912,-2.718 -3.876,-2.718 -2.215,0 -4.027,1.661 -4.027,5.336 -1.006,-3.373 -3.523,-5.336 -6.745,-5.336 -3.473,0 -6.544,2.365 -6.544,6.594 0,4.882 4.128,7.349 8.156,7.349 1.76,0 3.724,-0.453 5.234,-1.56 z" /></g><g
       transform="translate(1057.4914,487.38447)"
       id="g232"><path
         id="path234"
         style="fill:#ffffff;fill-opacity:1;fill-rule:nonzero;stroke:none"
         d="M 0,0 C 0,-0.604 0.05,-0.806 0.604,-1.107 L 4.027,-3.121 V -3.222 H -8.708 v 0.101 l 3.222,2.014 c 0.553,0.352 0.653,0.654 0.653,1.006 0,0.353 0.152,8.054 0.152,10.119 0,6.141 -1.36,8.758 -4.329,8.758 -2.316,0 -4.128,-1.509 -5.286,-3.724 V 0 c 0,-0.554 0,-0.705 0.605,-1.057 l 3.373,-2.064 v -0.101 h -12.737 v 0.101 l 3.423,2.014 c 0.554,0.301 0.554,0.553 0.554,1.107 v 17.518 c 0,0.654 -0.051,0.805 -0.554,1.158 l -3.423,2.516 v 0.101 h 8.759 v -5.939 c 1.208,4.378 3.826,6.342 7.45,6.342 4.43,0 6.948,-3.121 6.948,-10.068 C 0.102,9.162 0.05,4.027 0,0" /></g><g
       transform="translate(1061.9679,472.78587)"
       id="g236"><path
         id="path238"
         style="fill:#ffffff;fill-opacity:1;fill-rule:nonzero;stroke:none"
         d="M 0,0 1.762,7.602 H 1.863 L 4.782,2.567 C 5.034,2.165 5.135,1.964 5.386,1.964 c 0.201,0 0.403,0.201 0.604,0.453 1.208,1.46 2.416,4.077 3.071,5.89 L 9.715,10.118 1.007,32.419 C 0.604,33.375 0.403,33.677 0.05,34.13 l -1.258,1.661 v 0.101 H 8.759 V 35.791 L 6.343,33.476 C 5.94,33.123 5.89,32.922 6.141,32.268 l 6.041,-15.606 5.386,14.045 c 0.302,0.806 0.302,0.956 -0.151,1.51 l -3.02,3.574 v 0.101 h 7.802 V 35.791 L 19.38,32.317 C 18.927,31.814 18.776,31.513 18.424,30.606 L 9.866,8.155 C 9.111,6.192 8.406,4.531 7.349,2.87 5.89,0.554 4.228,-0.503 2.114,-0.503 1.258,-0.503 0.554,-0.302 0,0" /></g></g></svg>